<?xml version="1.0" encoding="UTF-8" standalone="no"?><svg xmlns:svg="http://www.w3.org/2000/svg" xmlns="http://www.w3.org/2000/svg" version="1.1" style="overflow:visible" viewBox="-250 -250 500 500" height="500px" width="500px"><rect fill-opacity="0" fill="rgb(0,0,0)" height="500" width="500" y="-250" x="-250" /><svg version="1.1" y="-250" x="-250" viewBox="-250 -250 500 500" height="500" width="500" style="overflow:visible"><g style="fill:#ffffff;stroke-linejoin:round"><path style="fill:#ff0000;fill-opacity:1;stroke:none;stroke-linecap:butt;stroke-linejoin:round" d="m -84.99,-152.073 c -12.546,8.0632 -24.711,18.389 -35.158,29.908 2.3193,-2.7561 4.7391,-5.5266 7.2637,-8.3223 0,0 -31.802,22.851 -49.1,71.727 -5.1618,14.27 -10.034,28.389 -10.533,41.98 -0.58984,16.062 1.6235,39.232 9.7734,60.83 0.16963,16.966 14.709,29.33 15.867,44.971 2.2957,15.983 19.953,25.103 24.686,29.864 1.0038,4.5181 8.9239,1.1115 12.469,5.9258 8.9146,-10.008 24.701,11.301 26.015,-9.2366 2.1778,0.84441 8.6065,1.7733 9.2949,-2.7617 -1.4033,-6.7428 6.7953,-14.027 3.8828,-23.197 -3.2321,-3.2889 -2.149,0.48931 -8.1523,-5.0742 -6.5524,-8.2183 -13.919,-4.436 -15.658,-9.9648 -7.2966,-4.2949 -3.9669,-7.4346 -16.238,-12.008 -9.7628,-14.596 -18.118,-29.549 -21.817,-46.31 -3.4574,-11.413 -3.7409,-43.657 1.22,-57.089 10.527,-28.27 -4.014,21.596 5.2488,-0.97199 14.515,-20.866 7.7986,-40.401 39.502,-65.253 10.5,-9.5052 31.966,-16.982 48.162,-22.537 19.747,-12.16 44.014,-5.9305 65.373999,-4.14 9.9407,3.1785 -3.8032,1.242 -19.367,1.5678 -7.0003,-1.2619 -23.02,-1.1499 -7,0.75781 27.708,3.2173 56.539,9.1758 79.309,26.266 1.3662,15.947 16.107,23.063 26.047001,33.398 12.206,17.14 18.558,37.573 24.953,57.395 1.2297,16.553999 -0.85833,35.791 -8.3574,53.109 -4.1564,14.255 -9.985,26.097 -13.551,31.141 6.4916,-8.157401 12.261,-18.696 17.211,-26.721 -2.2435,12.049 8.3103,-17.944 9.0684,-24.385 3.2696,-6.336 1.5854,-40.326 5.1074,-18.281 3.2041,31.144 -16.862,57.89 -32.986,82.566 -14.960001,20.202 -34.087001,38.849 -58.770001,46.07 -14.05,8.4134 -24.049,20.995 -41.424,24.922 -7.7574,3.9789 -25.724,8.6195 -26.906,12.184 8.299899,-1.1014 14.341,-2.7243 2.7441,0.90429 -5.844,1.5937 -14.26,7.6412 -2.8164,3.4199 46.395,-10.626 89.442,-33.993 124.660001,-65.863 -14.906001,24.077 -39.800001,38.703 -63.814001,52.166 1.0589,4.3799 26.991,-9.5087 9.9453,0.0273 -9.545,5.4242 -35.324,12.277 -35.496,16.936 34.17,-7.1518 64.855999,-26.035 88.869001,-51.109 16.851,-15.397 29.672,-34.935 38,-56.135 13.091,-10.051 -3.6691,14.957 -6.5996,20.148 -4.6935,6.4812 -10.662,18.091 -1.4746,6.2832 4.0011,-9.7616 12.868,-6.112 14.266,-9.5723 5.3241,-16.116 15.037,-29.907 22.746,-44.576 3.1545,-23.001 -0.95679,-46.424 -4.2891,-69.219 -4.7917,-23.229 -10.691,-46.967 -25.779,-65.904 -12.825,-18.832 -25.308,-40.258 -48.164001,-48.092 -8.8854,-4.2131 -22.72,-12.219 -28.84,-13.594 6.0066,4.3441 24.007,12.828 22.442,17.377 -20.15,-10.23 -41.296,-20.169 -62.542,-27.52 8.8074,1.8917 19.601,-1.8408 3.8301,-4.0664 -7.5229,-1.1467 -15.136,-1.8184 -22.742,-1.7012 -31.367,0.48352 -65.533,11.231 -90.381,21.76 z m -55.166,57.377 c -4.53,8.110099 -7.9601,16.381 -9.916,24.545 -3.4496,10.167 -7.0828,18.607 -10.396,26.709 3.6888,-18.277 10.304,-34.874 20.312,-51.254 z m 244.28,10.842 c 14.457,13.898 25.293,31.683 29.379,51.02 5.5532,9.894 0.33433,12.32 -3.5176,1.4336 -9.2172,-17.186 -16.81,-35.19 -25.861,-52.453 z" /></g></svg><svg version="1.1" y="58" x="-114" viewBox="0 0 500 500" height="500" width="500" style="overflow:visible"><g transform="matrix(0.59088465,-0.10418891,0.10418891,0.59088465,0,0)" style="fill:#ff0000;fill-opacity:1;stroke:#000000;stroke-width:0;stroke-linecap:round;stroke-linejoin:round;stroke-opacity:0"><g  aria-label="正"><path  d="m 122.2,-16.2 v -47.2 h 53.6 v -28.4 h -53.6 v -38.8 h 65.2 V -159 h -173 v 28.4 H 91.2 V -16.2 H 61.6 v -86.6 H 31.2 v 86.6 H 8 v 28.4 h 184.6 v -28.4 z" /></g><g  aria-label="解"><path  d="m 330.6,-75.8 c 0.8,-3.6 1.6,-7.2 2.2,-10.8 L 315.6,-90 c 20,-11.2 27.2,-27 30.2,-47.2 h 18.4 c -0.6,12.8 -1.6,18.4 -3,20.2 -1.4,1.8 -3,2.2 -5.2,2.2 -2.6,0 -6.8,-0.2 -12.2,-0.8 3.6,6.2 6,16 6.4,23.2 H 336 v 16.6 z m -31.8,-26.4 c 4.2,4.6 8,10.8 10,15.2 -2,11.2 -5.4,22.4 -10,31.4 z m -31.2,47.8 V -67 h 7.6 v 12.6 z M 241.4,-67 h 7.4 v 12.6 h -7.6 c 0.2,-4 0.2,-8 0.2,-11.8 z m 16.2,-63.4 c -1.2,3.8 -2.6,7.8 -4,11.2 h -14 c 1.8,-3.6 3.4,-7.4 5.2,-11.2 z m 10,32.2 h 7.6 v 11 h -7.6 z m -26.2,0 h 7.4 v 11 h -7.4 z m 154,61.2 h -31.8 v -14.6 h 27.6 v -24.2 h -27.6 v -16.6 h -2.8 c 3.6,-0.2 7,-0.4 9.4,-0.8 5.2,-1 9.4,-2.8 13,-7.4 4.4,-5.6 6,-20 6.8,-51.4 0.2,-3 0.4,-8.8 0.4,-8.8 H 300 v 23.6 h 19.8 c -2.2,11.8 -7.4,21.4 -21,28.2 v -10.2 h -21.2 c 3.8,-8 7.6,-16.4 10.2,-23.8 l -16.4,-10 -3.6,1 h -15 c 1.6,-4.4 2.8,-9 4,-13.6 l -25.6,-5.6 c -5.2,23.4 -15.4,46.6 -28.8,61 4.4,2.8 11,8.4 16,12.8 v 31 c 0,22.6 -1,52.4 -14.6,73 5.4,2.4 15.8,9 20,12.8 9.4,-14.2 13.8,-33.8 16,-52.8 h 35.4 v 25 c 0,2.4 -0.8,3.2 -3,3.2 -2.4,0 -9.6,0 -16.2,-0.4 3.4,6.4 7.2,17.6 8,24.4 11.4,0 19.6,-0.6 26.4,-4.6 6.6,-4.2 8.4,-11.4 8.4,-22 v -39.6 c 5.6,2.6 13.2,6.4 17,9.2 2.4,-3.8 4.8,-8.4 6.8,-13.4 H 336 V -37 h -34.4 v 24.8 H 336 v 30.6 h 27.6 v -30.6 h 31.8 z" /></g></g></svg></svg>